<svg width="81" height="81" viewBox="0 0 81 81" fill="none" xmlns="http://www.w3.org/2000/svg">
<path d="M29.1461 5.42322C30.3448 6.14247 30.7335 7.69732 30.0143 8.89607L17.1269 30.375H63.8731L50.9857 8.89607C50.2665 7.69732 50.6552 6.14247 51.8539 5.42322C53.0527 4.70397 54.6075 5.09268 55.3268 6.29143L69.7769 30.375H75.9375C78.7334 30.375 81 32.6416 81 35.4375V40.5C81 43.2959 78.7334 45.5625 75.9375 45.5625V68.345C75.9375 75.3352 70.2707 81 63.2812 81H17.7188C10.7293 81 5.0625 75.3352 5.0625 68.345V45.5625C2.26656 45.5625 0 43.2959 0 40.5V35.4375C0 32.6416 2.26656 30.375 5.0625 30.375H11.2231L25.6732 6.29143C26.3925 5.09268 27.9473 4.70397 29.1461 5.42322ZM10.125 45.5625V68.345C10.125 72.5385 13.5244 75.9375 17.7188 75.9375H63.2812C67.4756 75.9375 70.875 72.5385 70.875 68.345V45.5625H10.125ZM5.0625 35.4375V40.5H75.9375V35.4375H5.0625ZM20.25 50.625C21.648 50.625 22.7812 51.7583 22.7812 53.1562V68.3438C22.7812 69.7417 21.648 70.875 20.25 70.875C18.852 70.875 17.7188 69.7417 17.7188 68.3438V53.1562C17.7188 51.7583 18.852 50.625 20.25 50.625ZM30.375 50.625C31.773 50.625 32.9062 51.7583 32.9062 53.1562V68.3438C32.9062 69.7417 31.773 70.875 30.375 70.875C28.977 70.875 27.8438 69.7417 27.8438 68.3438V53.1562C27.8438 51.7583 28.977 50.625 30.375 50.625ZM40.5 50.625C41.898 50.625 43.0312 51.7583 43.0312 53.1562V68.3438C43.0312 69.7417 41.898 70.875 40.5 70.875C39.102 70.875 37.9688 69.7417 37.9688 68.3438V53.1562C37.9688 51.7583 39.102 50.625 40.5 50.625ZM50.625 50.625C52.023 50.625 53.1562 51.7583 53.1562 53.1562V68.3438C53.1562 69.7417 52.023 70.875 50.625 70.875C49.227 70.875 48.0938 69.7417 48.0938 68.3438V53.1562C48.0938 51.7583 49.227 50.625 50.625 50.625ZM60.75 50.625C62.148 50.625 63.2812 51.7583 63.2812 53.1562V68.3438C63.2812 69.7417 62.148 70.875 60.75 70.875C59.352 70.875 58.2188 69.7417 58.2188 68.3438V53.1562C58.2188 51.7583 59.352 50.625 60.75 50.625Z" fill="black"/>
</svg>
