<svg width="69" height="70" viewBox="0 0 69 70" fill="none" xmlns="http://www.w3.org/2000/svg">
<path d="M12.9375 19.6875C12.9375 18.4794 13.9029 17.5 15.0938 17.5H40.9688C42.1596 17.5 43.125 18.4794 43.125 19.6875C43.125 20.8957 42.1596 21.875 40.9688 21.875H15.0938C13.9029 21.875 12.9375 20.8957 12.9375 19.6875Z" fill="black"/>
<path d="M12.9375 28.4375C12.9375 27.2294 13.9029 26.25 15.0938 26.25H40.9688C42.1596 26.25 43.125 27.2294 43.125 28.4375C43.125 29.6456 42.1596 30.625 40.9688 30.625H15.0938C13.9029 30.625 12.9375 29.6456 12.9375 28.4375Z" fill="black"/>
<path d="M12.9375 37.1875C12.9375 35.9794 13.9029 35 15.0938 35H40.9688C42.1596 35 43.125 35.9794 43.125 37.1875C43.125 38.3956 42.1596 39.375 40.9688 39.375H15.0938C13.9029 39.375 12.9375 38.3956 12.9375 37.1875Z" fill="black"/>
<path d="M12.9375 45.9375C12.9375 44.7294 13.9029 43.75 15.0938 43.75H40.9688C42.1596 43.75 43.125 44.7294 43.125 45.9375C43.125 47.1456 42.1596 48.125 40.9688 48.125H15.0938C13.9029 48.125 12.9375 47.1456 12.9375 45.9375Z" fill="black"/>
<path d="M12.9375 54.6875C12.9375 53.4794 13.9029 52.5 15.0938 52.5H40.9688C42.1596 52.5 43.125 53.4794 43.125 54.6875C43.125 55.8956 42.1596 56.875 40.9688 56.875H15.0938C13.9029 56.875 12.9375 55.8956 12.9375 54.6875Z" fill="black"/>
<path d="M49.5938 17.5C48.4029 17.5 47.4375 18.4794 47.4375 19.6875C47.4375 20.8957 48.4029 21.875 49.5938 21.875H53.9062C55.0971 21.875 56.0625 20.8957 56.0625 19.6875C56.0625 18.4794 55.0971 17.5 53.9062 17.5H49.5938Z" fill="black"/>
<path d="M49.5938 26.25C48.4029 26.25 47.4375 27.2294 47.4375 28.4375C47.4375 29.6456 48.4029 30.625 49.5938 30.625H53.9062C55.0971 30.625 56.0625 29.6456 56.0625 28.4375C56.0625 27.2294 55.0971 26.25 53.9062 26.25H49.5938Z" fill="black"/>
<path d="M49.5938 35C48.4029 35 47.4375 35.9794 47.4375 37.1875C47.4375 38.3956 48.4029 39.375 49.5938 39.375H53.9062C55.0971 39.375 56.0625 38.3956 56.0625 37.1875C56.0625 35.9794 55.0971 35 53.9062 35H49.5938Z" fill="black"/>
<path d="M49.5938 43.75C48.4029 43.75 47.4375 44.7294 47.4375 45.9375C47.4375 47.1456 48.4029 48.125 49.5938 48.125H53.9062C55.0971 48.125 56.0625 47.1456 56.0625 45.9375C56.0625 44.7294 55.0971 43.75 53.9062 43.75H49.5938Z" fill="black"/>
<path d="M49.5938 52.5C48.4029 52.5 47.4375 53.4794 47.4375 54.6875C47.4375 55.8956 48.4029 56.875 49.5938 56.875H53.9062C55.0971 56.875 56.0625 55.8956 56.0625 54.6875C56.0625 53.4794 55.0971 52.5 53.9062 52.5H49.5938Z" fill="black"/>
<path d="M10.1497 2.82823C9.65959 2.33102 8.96377 2.10314 8.27961 2.21577C7.59544 2.32841 7.00636 2.76782 6.69639 3.39675L4.54014 7.77175C4.39044 8.07549 4.3125 8.41043 4.3125 8.75003V65.625H2.15625C0.965386 65.625 0 66.6044 0 67.8125C0 69.0206 0.965386 70 2.15625 70H66.8438C68.0346 70 69 69.0206 69 67.8125C69 66.6044 68.0346 65.625 66.8438 65.625H64.6875V8.75003C64.6875 8.41043 64.6096 8.07549 64.4599 7.77175L62.3036 3.39675C61.9936 2.76782 61.4046 2.32841 60.7204 2.21577C60.0362 2.10314 59.3404 2.33102 58.8503 2.82823L56.0625 5.65643L53.2747 2.82823C52.4326 1.97396 51.0674 1.97396 50.2253 2.82823L47.4375 5.65643L44.6497 2.82823C43.8076 1.97396 42.4424 1.97396 41.6003 2.82823L38.8125 5.65643L36.0247 2.82823C35.1826 1.97396 33.8174 1.97396 32.9753 2.82823L30.1875 5.65643L27.3997 2.82823C26.5576 1.97396 25.1924 1.97396 24.3503 2.82823L21.5625 5.65643L18.7747 2.82823C17.9326 1.97396 16.5674 1.97396 15.7253 2.82823L12.9375 5.65643L10.1497 2.82823ZM9.21571 8.06789L11.4128 10.2968C12.2549 11.1511 13.6201 11.1511 14.4622 10.2968L17.25 7.46862L20.0378 10.2968C20.8799 11.1511 22.2451 11.1511 23.0872 10.2968L25.875 7.46862L28.6628 10.2968C29.5049 11.1511 30.8701 11.1511 31.7122 10.2968L34.5 7.46862L37.2878 10.2968C38.1299 11.1511 39.4951 11.1511 40.3372 10.2968L43.125 7.46862L45.9128 10.2968C46.7549 11.1511 48.1201 11.1511 48.9622 10.2968L51.75 7.46862L54.5378 10.2968C55.3799 11.1511 56.7451 11.1511 57.5872 10.2968L59.7843 8.06789L60.375 9.26642V65.625H8.625V9.26643L9.21571 8.06789Z" fill="black"/>
</svg>
