<svg width="69" height="70" viewBox="0 0 69 70" fill="none" xmlns="http://www.w3.org/2000/svg">
<path d="M34.5 35C44.0269 35 51.75 27.165 51.75 17.5C51.75 7.83502 44.0269 0 34.5 0C24.9731 0 17.25 7.83502 17.25 17.5C17.25 27.165 24.9731 35 34.5 35ZM46 17.5C46 23.9433 40.8513 29.1667 34.5 29.1667C28.1487 29.1667 23 23.9433 23 17.5C23 11.0567 28.1487 5.83333 34.5 5.83333C40.8513 5.83333 46 11.0567 46 17.5Z" fill="black"/>
<path d="M69 64.1667C69 70 63.25 70 63.25 70H5.75C5.75 70 0 70 0 64.1667C0 58.3333 5.75 40.8333 34.5 40.8333C63.25 40.8333 69 58.3333 69 64.1667ZM63.2499 64.1464C63.2417 62.7068 62.3658 58.3943 58.4653 54.4373C54.7148 50.6325 47.6623 46.6667 34.4999 46.6667C21.3376 46.6667 14.285 50.6325 10.5346 54.4373C6.63409 58.3943 5.75819 62.7068 5.75 64.1464H63.2499Z" fill="black"/>
</svg>
